<svg width="1500" height="1500" viewBox="0 0 1500 1500" fill="none" xmlns="http://www.w3.org/2000/svg">
<circle cx="939.455" cy="235.455" r="4.05459" stroke="#3D3D3D" stroke-width="0.8"/>
<path d="M937.899 237.81V233.273H939.549C939.854 233.273 940.122 233.329 940.353 233.443C940.585 233.553 940.765 233.715 940.895 233.93C941.029 234.141 941.096 234.395 941.096 234.692C941.096 235.004 941.017 235.272 940.859 235.496C940.704 235.719 940.495 235.881 940.231 235.983L941.279 237.81H940.463L939.348 235.831L939.817 236.105H938.617V237.81H937.899ZM938.617 235.465H939.561C939.728 235.465 939.872 235.433 939.994 235.368C940.116 235.303 940.209 235.213 940.274 235.1C940.343 234.982 940.378 234.844 940.378 234.686C940.378 234.527 940.343 234.391 940.274 234.277C940.209 234.16 940.116 234.07 939.994 234.009C939.872 233.945 939.728 233.912 939.561 233.912H938.617V235.465Z" fill="#3D3D3D"/>
<path d="M738.738 885.794L861.264 719.336C871.064 705.991 871.839 685.082 852.006 685.082V672.358H934.089V685.082C900.272 685.082 880.439 710.374 870.599 723.642L805.599 811.351L925.993 977.926C936.995 993.171 957.409 1015.79 984.603 1015.79V1028.51H812.068V1015.79C833.102 1015.79 826.671 997.283 810.828 977.228L738.777 886.104" fill="black"/>
<path d="M738.7 1031.54H516C517.085 1029.83 517.859 1028.4 518.828 1027.12C525.336 1018.15 531.805 1009.19 538.468 1000.35C539.358 999.146 541.063 997.866 542.419 997.827C570.774 997.517 596.883 990.263 620.629 972.496C620.629 978.431 620.745 983.668 620.513 988.866C620.474 989.913 619.234 991 618.343 991.853C614.663 995.383 610.906 998.836 606.606 1002.91H710.15V843.472C710.538 843.239 710.886 843.045 711.274 842.812C718.634 848.399 725.955 854.14 733.431 859.571C737.266 862.364 738.661 865.428 738.661 870.549C738.428 922.376 738.661 974.202 738.738 1026.03C738.738 1027.74 738.738 1029.4 738.738 1031.54H738.7Z" fill="black"/>
<path d="M537.654 976.956C541.76 971.176 545.324 966.172 548.966 961.206C549.43 960.586 550.321 960.081 551.096 959.926C568.14 956.318 580.73 946.194 590.027 932.034C610.79 900.419 612.649 867.445 595.915 833.502C594.83 831.329 593.397 829.312 591.886 827.372C587.393 821.631 582.628 820.002 577.321 822.135C571.588 824.463 567.792 831.058 568.489 837.497C569.574 847.312 577.476 852.704 587.974 850.105C589.407 855.536 590.802 861.005 592.312 866.785C583.054 869.385 574.842 869.346 567.443 863.876C557.139 856.273 551.483 845.838 552.258 833.114C553.149 818.605 561.168 808.248 574.222 801.925C580.033 799.093 585.611 799.791 590.957 803.282C600.525 809.528 607.342 818.179 612.339 828.226C627.021 857.98 629.577 888.703 617.143 919.66C607.381 943.982 591.538 963.223 566.126 972.844C557.294 976.18 548.075 977.305 537.654 976.956Z" fill="black" fill-opacity="0.8"/>
<path d="M568.14 757.973C568.14 763.442 568.295 768.33 568.024 773.179C567.947 774.382 566.746 775.934 565.622 776.671C527.35 800.916 522.004 855.574 554.853 887.229C563.182 895.259 573.254 899.759 585.185 902.242C583.325 907.091 581.814 911.668 579.761 916.013C579.335 916.866 576.779 917.332 575.423 917.022C558.34 913.414 545.169 903.91 534.478 890.255C508.253 856.738 510.151 807.123 539.049 776.515C545.944 769.222 553.808 763.248 563.221 759.563C564.654 759.02 566.126 758.632 568.14 757.973Z" fill="black" fill-opacity="0.8"/>
<path d="M584.758 529.214C575.888 533.869 567.52 538.291 558.766 542.908C545.324 525.024 531.727 506.986 517.627 488.249H611.797C609.744 498.025 605.909 506.714 600.524 514.744C599.866 515.753 597.89 516.335 596.496 516.374C589.6 516.529 582.744 516.451 574.803 516.451C578.405 521.067 581.504 525.063 584.758 529.253V529.214Z" fill="black"/>
<path d="M552.916 745.908C555.589 736.947 558.146 728.49 560.663 719.995C561.593 716.814 562.794 713.672 563.22 710.452C563.762 706.417 565.738 705.137 569.573 705.68C571.239 705.913 572.982 705.719 574.609 705.719C580.729 721.236 589.058 728.452 600.408 728.18C612.571 727.87 620.435 720.887 625.471 705.913H676.797C672.691 713.206 667.229 718.598 661.419 723.719C649.952 733.805 636.046 738.421 621.326 740.089C600.098 742.494 578.754 744.046 557.448 745.908C556.054 746.025 554.659 745.908 552.955 745.908H552.916Z" fill="black" fill-opacity="0.8"/>
<path d="M657.235 516.412H640.617C636.743 506.792 633.063 497.676 629.267 488.249H689.038V551.364C678.502 549.657 668.159 547.951 657.235 546.205V516.451V516.412Z" fill="black"/>
<path d="M582.976 769.028C584.952 765.304 586.424 761.696 588.709 758.709C589.523 757.623 592.544 757.274 594.094 757.856C602.267 760.843 610.983 763.131 618.227 767.748C640.578 781.985 653.671 803.359 661.031 828.38C665.835 844.712 667.655 861.354 663.859 878.229C660.838 891.534 654.252 902.086 640.539 906.974C642.709 900.767 645.42 894.909 646.815 888.703C655.453 850.104 646.66 816.083 619.04 787.454C610.053 778.144 598.665 772.674 586.075 769.804C585.262 769.61 584.487 769.416 583.015 769.028H582.976Z" fill="black" fill-opacity="0.8"/>
<path d="M680.361 867.133C676.72 817.44 658.629 777.445 612.997 752.734C627.872 752.812 640.965 755.954 652.083 765.109C673.272 782.566 685.048 805.221 688.999 832.22C690.781 844.285 688.999 855.418 681.174 865.155C680.748 865.698 680.632 866.435 680.361 867.094V867.133Z" fill="black" fill-opacity="0.8"/>
<path d="M717.471 796.222C713.636 804.174 708.949 816.2 703.991 803.011C698.568 789.937 692.757 776.981 682.918 766.662C675.829 759.253 667.733 752.813 660.063 745.947C663.317 743.93 667.346 741.331 671.568 739.042C672.42 738.576 674.202 739.275 675.248 739.934C695.12 753.162 700.969 769.533 711.08 786.33C713.753 790.209 714.76 792.343 717.51 796.222H717.471Z" fill="black" fill-opacity="0.8"/>
<path d="M724.018 777.02C714.334 756.732 702.286 739.469 683.305 727.211C685.862 723.409 688.457 719.608 691.208 715.573C702.674 721.431 711.506 729.81 719.137 739.78C722.778 744.551 724.715 749.439 724.212 755.646C723.669 762.473 724.095 769.378 724.095 777.02H724.018Z" fill="black" fill-opacity="0.8"/>
<path d="M610.17 705.951C609.938 711.576 606.142 715.223 600.215 715.727C595.566 716.154 591.228 712.08 589.988 705.951H610.209H610.17Z" fill="black" fill-opacity="0.8"/>
<path d="M719.447 715.611C715.07 712.352 711.08 709.404 706.625 706.106H719.447V715.611Z" fill="black" fill-opacity="0.8"/>
<path d="M614.856 976.607C648.248 957.754 695.042 891.186 710.188 843.433C724.56 882.768 723.049 1013.77 723.049 1013.77H585.145L614.818 976.607H614.856Z" fill="black"/>
<path d="M708.911 847.234C723.011 815.385 729.906 794.049 739.242 754.792C739.242 799.131 739.242 872.953 739.242 872.953L708.911 847.234Z" fill="black"/>
<path d="M581.078 531.153C583.674 529.795 589.445 526.653 594.559 521.532C600.563 515.519 600.989 514.317 602.771 511.097C604.553 507.877 568.76 511.097 568.76 511.097L581.039 531.114L581.078 531.153Z" fill="black"/>
<path d="M640.307 515.598C644.956 526.925 653.516 545.662 653.516 545.662L659.172 546.477V513.658L640.307 515.598Z" fill="black"/>
<path d="M701.628 468C714.528 471.142 725.955 477.388 735.523 486.543C759.502 509.508 769.108 538.02 765.312 570.722C762.833 592.252 751.948 609.554 733.858 621.502C723.166 628.562 710.964 631.549 698.53 626.583C685.049 621.191 677.921 609.166 680.478 593.61C680.71 592.252 682.415 590.196 683.616 590.041C710.034 586.782 727.389 565.951 732.115 544.266C737.538 519.284 729.016 498.452 712.552 480.22C708.95 476.224 704.534 472.927 700.466 469.319C700.854 468.892 701.241 468.466 701.667 468.039L701.628 468Z" fill="black" fill-opacity="0.8"/>
<path d="M552.065 641.752C527.428 616.731 527.815 579.606 561.478 559.977C569.884 555.089 578.987 551.365 587.703 546.982C602.849 539.378 613.734 527.857 619.312 511.603C619.506 511.06 619.816 510.594 621.094 509.857C622.024 513.853 623.225 517.81 623.883 521.844C625.433 531.698 624.542 541.396 620.591 550.589C619.738 552.529 617.84 554.624 615.942 555.439C580.188 570.994 558.999 597.916 552.607 636.437C552.375 637.95 552.297 639.502 552.103 641.713L552.065 641.752Z" fill="black" fill-opacity="0.8"/>
<path d="M718.209 647.027C709.415 653.816 699.46 655.949 688.923 655.329C677.302 654.63 667.037 650.712 657.973 642.954C648.869 635.195 643.407 625.575 640.89 614.286C637.791 600.321 640.541 587.403 649.954 576.347C658.166 566.688 670.33 563.352 682.338 567.347C683.5 567.735 684.624 568.317 686.599 569.171C677.728 572.507 671.569 577.86 667.657 585.502C662.698 595.2 662.117 605.325 665.449 615.644C672.034 635.894 692.41 649.238 713.56 647.337C715.11 647.182 716.659 647.182 718.17 647.066L718.209 647.027Z" fill="black" fill-opacity="0.8"/>
<path d="M566.476 687.177V671.815H719.758C719.758 676.083 719.952 680.505 719.603 684.888C719.526 685.742 717.318 687.061 716.04 687.1C708.563 687.255 701.087 687.1 693.611 687.1C654.215 687.1 614.819 687.177 575.424 687.216C572.557 687.216 569.691 687.216 566.476 687.216V687.177Z" fill="black" fill-opacity="0.8"/>
<path d="M630.004 606.723C630.004 568.822 655.764 560.637 655.764 560.637C655.764 560.637 638.255 565.254 623.535 570.995C622.993 571.189 622.489 571.383 621.986 571.615C614.006 574.796 607.072 578.327 604.554 581.546C604.554 581.546 604.515 581.624 604.476 581.663C581.118 599.468 569.071 628.951 569.497 651.722H660.103C660.103 651.722 630.043 644.623 630.043 606.723H630.004Z" fill="black" fill-opacity="0.8"/>
<path d="M516 1031.54C516 1031.54 532.076 1002.09 537.616 992.086C571.821 994.685 607.149 968.849 640.23 933.471C659.986 912.368 693.184 886.493 732.192 782.452C734.052 853.869 725.336 1008.26 725.336 1008.26H537.655" fill="black"/>
</svg>
