<svg width="1500" height="1500" viewBox="0 0 1500 1500" fill="none" xmlns="http://www.w3.org/2000/svg">
<circle cx="939.455" cy="235.455" r="4.05459" stroke="#3D3D3D" stroke-width="0.8"/>
<path d="M937.899 237.81V233.273H939.549C939.854 233.273 940.122 233.329 940.353 233.443C940.585 233.553 940.765 233.715 940.895 233.93C941.029 234.141 941.096 234.395 941.096 234.692C941.096 235.004 941.017 235.272 940.859 235.496C940.704 235.719 940.495 235.881 940.231 235.983L941.279 237.81H940.463L939.348 235.831L939.817 236.105H938.617V237.81H937.899ZM938.617 235.465H939.561C939.728 235.465 939.872 235.433 939.994 235.368C940.116 235.303 940.209 235.213 940.274 235.1C940.343 234.982 940.378 234.844 940.378 234.686C940.378 234.527 940.343 234.391 940.274 234.277C940.209 234.16 940.116 234.07 939.994 234.009C939.872 233.945 939.728 233.912 939.561 233.912H938.617V235.465Z" fill="#3D3D3D"/>
<path d="M740.692 676.955L863.218 510.497C873.018 497.153 873.793 476.243 853.96 476.243V463.52H936.044V476.243C902.226 476.243 882.393 501.536 872.553 514.803L807.553 602.513L927.947 769.088C938.949 784.333 959.363 806.949 986.557 806.949V819.673H814.022V806.949C835.056 806.949 828.626 788.445 812.782 768.389L740.731 677.266" fill="black"/>
<path d="M740.654 822.699H517.954C519.039 820.992 519.813 819.557 520.782 818.277C527.29 809.316 533.759 800.355 540.422 791.51C541.313 790.308 543.017 789.027 544.373 788.989C572.728 788.678 598.837 781.424 622.583 763.657C622.583 769.592 622.699 774.829 622.467 780.028C622.428 781.075 621.188 782.161 620.297 783.015C616.617 786.545 612.86 789.997 608.56 794.07H712.104V634.634C712.492 634.401 712.84 634.207 713.228 633.974C720.588 639.56 727.909 645.302 735.385 650.732C739.22 653.526 740.615 656.59 740.615 661.711C740.382 713.537 740.615 765.364 740.692 817.191C740.692 818.898 740.692 820.566 740.692 822.699H740.654Z" fill="black"/>
<path d="M539.608 768.118C543.715 762.338 547.278 757.334 550.92 752.368C551.384 751.748 552.275 751.243 553.05 751.088C570.094 747.481 582.684 737.356 591.981 723.196C612.744 691.581 614.603 658.607 597.869 624.664C596.784 622.491 595.351 620.474 593.84 618.534C589.347 612.793 584.582 611.164 579.275 613.297C573.542 615.625 569.746 622.22 570.443 628.659C571.528 638.474 579.43 643.866 589.928 641.267C591.361 646.698 592.756 652.168 594.266 657.948C585.008 660.547 576.796 660.508 569.397 655.038C559.093 647.435 553.438 637 554.212 624.276C555.103 609.767 563.122 599.41 576.176 593.087C581.987 590.255 587.565 590.953 592.911 594.444C602.479 600.69 609.296 609.341 614.294 619.388C628.975 649.142 631.532 679.865 619.097 710.822C609.335 735.145 593.492 754.386 568.08 764.006C559.248 767.342 550.029 768.467 539.608 768.118Z" fill="black" fill-opacity="0.8"/>
<path d="M570.094 549.134C570.094 554.604 570.249 559.492 569.978 564.341C569.9 565.543 568.7 567.095 567.576 567.832C529.304 592.077 523.958 646.736 556.807 678.391C565.136 686.421 575.207 690.921 587.138 693.403C585.279 698.252 583.768 702.83 581.715 707.175C581.289 708.028 578.732 708.494 577.377 708.183C560.294 704.576 547.123 695.071 536.432 681.416C510.207 647.9 512.105 598.284 541.003 567.677C547.898 560.384 555.761 554.41 565.175 550.725C566.608 550.182 568.08 549.794 570.094 549.134Z" fill="black" fill-opacity="0.8"/>
<path d="M586.712 320.375C577.842 325.031 569.474 329.453 560.72 334.069C547.278 316.186 533.681 298.147 519.581 279.411H613.751C611.698 289.186 607.863 297.876 602.478 305.906C601.82 306.914 599.844 307.496 598.45 307.535C591.555 307.69 584.698 307.613 576.757 307.613C580.36 312.229 583.459 316.225 586.712 320.414V320.375Z" fill="black"/>
<path d="M554.87 537.07C557.543 528.109 560.099 519.652 562.617 511.156C563.547 507.975 564.748 504.833 565.174 501.614C565.716 497.579 567.692 496.299 571.527 496.842C573.193 497.075 574.936 496.881 576.563 496.881C582.683 512.398 591.012 519.613 602.362 519.342C614.525 519.031 622.389 512.049 627.424 497.075H678.751C674.645 504.368 669.183 509.76 663.372 514.881C651.906 524.967 638 529.583 623.28 531.251C602.052 533.656 580.708 535.208 559.402 537.07C558.008 537.186 556.613 537.07 554.909 537.07H554.87Z" fill="black" fill-opacity="0.8"/>
<path d="M659.189 307.574H642.571C638.697 297.953 635.017 288.837 631.221 279.411H690.992V342.526C680.456 340.819 670.113 339.112 659.189 337.367V307.613V307.574Z" fill="black"/>
<path d="M584.93 560.189C586.906 556.465 588.378 552.858 590.663 549.871C591.477 548.785 594.498 548.435 596.048 549.017C604.221 552.004 612.937 554.293 620.181 558.909C642.532 573.146 655.625 594.521 662.985 619.542C667.789 635.874 669.609 652.515 665.813 669.39C662.792 682.696 656.206 693.248 642.493 698.135C644.663 691.929 647.374 686.071 648.769 679.864C657.407 641.266 648.614 607.245 620.994 578.616C612.007 569.306 600.619 563.836 588.029 560.965C587.216 560.771 586.441 560.577 584.969 560.189H584.93Z" fill="black" fill-opacity="0.8"/>
<path d="M682.315 658.295C678.674 608.602 660.584 568.607 614.951 543.896C629.826 543.974 642.92 547.116 654.037 556.271C675.226 573.727 687.002 596.382 690.954 623.382C692.735 635.446 690.954 646.58 683.129 656.316C682.703 656.86 682.586 657.597 682.315 658.256V658.295Z" fill="black" fill-opacity="0.8"/>
<path d="M719.425 587.383C715.59 595.336 710.903 607.362 705.945 594.172C700.522 581.099 694.711 568.142 684.872 557.824C677.783 550.414 669.687 543.975 662.017 537.108C665.271 535.091 669.3 532.492 673.522 530.203C674.374 529.738 676.156 530.436 677.202 531.096C697.074 544.324 702.923 560.694 713.034 577.491C715.707 581.371 716.714 583.504 719.464 587.383H719.425Z" fill="black" fill-opacity="0.8"/>
<path d="M725.972 568.182C716.288 547.894 704.24 530.631 685.259 518.373C687.816 514.571 690.411 510.769 693.162 506.735C704.628 512.593 713.46 520.972 721.091 530.941C724.732 535.713 726.669 540.601 726.166 546.807C725.623 553.635 726.049 560.54 726.049 568.182H725.972Z" fill="black" fill-opacity="0.8"/>
<path d="M612.124 497.113C611.892 502.738 608.096 506.384 602.169 506.888C597.52 507.315 593.182 503.242 591.942 497.113H612.163H612.124Z" fill="black" fill-opacity="0.8"/>
<path d="M721.401 506.772C717.024 503.514 713.034 500.565 708.579 497.268H721.401V506.772Z" fill="black" fill-opacity="0.8"/>
<path d="M616.81 767.768C650.202 748.915 696.996 682.347 712.142 634.594C726.514 673.929 725.003 804.931 725.003 804.931H587.099L616.772 767.768H616.81Z" fill="black"/>
<path d="M710.865 638.395C724.965 606.547 731.86 585.211 741.196 545.953C741.196 590.293 741.196 664.115 741.196 664.115L710.865 638.395Z" fill="black"/>
<path d="M583.032 322.314C585.628 320.957 591.399 317.814 596.513 312.694C602.517 306.681 602.943 305.478 604.725 302.259C606.507 299.039 570.714 302.259 570.714 302.259L582.994 322.276L583.032 322.314Z" fill="black"/>
<path d="M642.261 306.759C646.91 318.087 655.471 336.824 655.471 336.824L661.126 337.638V304.82L642.261 306.759Z" fill="black"/>
<path d="M703.583 259.162C716.482 262.304 727.909 268.55 737.478 277.705C761.456 300.67 771.063 329.182 767.266 361.884C764.787 383.414 753.902 400.716 735.812 412.664C725.12 419.724 712.918 422.711 700.484 417.746C687.003 412.353 679.875 400.328 682.432 384.772C682.665 383.414 684.369 381.358 685.57 381.203C711.989 377.945 729.343 357.113 734.069 335.428C739.492 310.446 730.97 289.614 714.506 271.382C710.904 267.386 706.488 264.089 702.42 260.481C702.808 260.054 703.195 259.628 703.621 259.201L703.583 259.162Z" fill="black" fill-opacity="0.8"/>
<path d="M554.019 432.914C529.382 407.893 529.77 370.768 563.432 351.139C571.838 346.252 580.941 342.527 589.657 338.144C604.803 330.541 615.688 319.019 621.267 302.765C621.46 302.222 621.77 301.757 623.049 301.02C623.978 305.015 625.179 308.972 625.838 313.006C627.387 322.86 626.496 332.558 622.545 341.752C621.693 343.691 619.795 345.786 617.896 346.601C582.142 362.156 560.953 389.078 554.561 427.599C554.329 429.112 554.251 430.664 554.058 432.875L554.019 432.914Z" fill="black" fill-opacity="0.8"/>
<path d="M720.163 438.189C711.37 444.978 701.415 447.112 690.878 446.491C679.257 445.793 668.992 441.875 659.927 434.116C650.824 426.358 645.362 416.737 642.844 405.448C639.745 391.483 642.495 378.565 651.909 367.509C660.121 357.85 672.284 354.514 684.293 358.51C685.455 358.898 686.578 359.479 688.554 360.333C679.683 363.669 673.524 369.022 669.611 376.664C664.653 386.363 664.072 396.487 667.403 406.806C673.989 427.056 694.364 440.4 715.515 438.5C717.064 438.344 718.614 438.344 720.125 438.228L720.163 438.189Z" fill="black" fill-opacity="0.8"/>
<path d="M568.43 478.339V462.977H721.713C721.713 467.244 721.906 471.667 721.558 476.05C721.48 476.904 719.272 478.222 717.994 478.261C710.518 478.416 703.041 478.261 695.565 478.261C656.169 478.261 616.774 478.339 577.378 478.378C574.512 478.378 571.645 478.378 568.43 478.378V478.339Z" fill="black" fill-opacity="0.8"/>
<path d="M631.959 397.884C631.959 359.984 657.719 351.799 657.719 351.799C657.719 351.799 640.21 356.415 625.49 362.156C624.947 362.35 624.444 362.544 623.94 362.777C615.96 365.958 609.026 369.488 606.508 372.708C606.508 372.708 606.47 372.786 606.431 372.824C583.072 390.63 571.025 420.112 571.451 442.883H662.057C662.057 442.883 631.997 435.784 631.997 397.884H631.959Z" fill="black" fill-opacity="0.8"/>
<path d="M517.955 822.7C517.955 822.7 534.03 793.256 539.57 783.248C573.775 785.847 609.103 760.011 642.184 724.632C661.94 703.529 695.138 677.655 734.146 573.613C736.006 645.03 727.29 799.424 727.29 799.424H539.609" fill="black"/>
<path d="M537.709 1123.58L540.978 1126.73C532.195 1139.15 515.062 1147.61 499.659 1147.48C465.52 1147.16 466.338 1132.52 464.238 1132.52C460.52 1132.52 444.989 1148.62 406.955 1148.62C353.455 1148.62 334.046 1081.36 380.109 1055.83C402.692 1043.86 461.049 1031.6 461.049 1001.14C461.049 974.479 452.41 955.652 429.538 955.54C410.289 955.427 388.716 974.463 401.298 1003.79C415.274 1036.31 359.706 1043.41 363.328 1003.79C368.121 969.336 397.772 951.357 429.667 951.357C475.778 951.357 515.927 968.038 515.927 1017.37V1106.91C515.927 1124.75 520.671 1130.21 526.025 1130.21C529.663 1130.21 534.615 1127.84 537.693 1123.59V1123.55L537.709 1123.58ZM461.85 1014.25C441.928 1049.04 403.237 1054.23 403.237 1089.02C403.237 1109.96 412.036 1135.37 434.924 1135.37C450.486 1135.37 461.882 1116.14 461.882 1103.74V1014.23H461.866L461.85 1014.25Z" fill="black"/>
<path d="M649.437 1128.24C635.637 1142.93 616.388 1149.74 596.481 1149.74C563.865 1149.74 548.431 1124.27 548.431 1094.67V993.788C548.447 974.111 544.087 961.036 530.319 961.036V954.947C560.9 954.947 588.195 935.415 595.103 912.677H600.713V954.947H619.224V961.036H600.713V1084.13C600.713 1108.02 604.046 1135.1 624.177 1135.1C632.191 1135.1 640.621 1129.8 645.526 1124.19L649.437 1128.27V1128.24Z" fill="black"/>
<path d="M763.585 1128.24C749.786 1142.93 730.536 1149.74 710.614 1149.74C677.998 1149.74 662.563 1124.27 662.563 1094.67V993.788C662.579 974.111 658.22 961.036 644.452 961.036V954.947C675.033 954.947 702.328 935.415 709.236 912.677H714.845V954.947H733.357V961.036H714.845V1084.13C714.845 1108.02 718.179 1135.1 738.31 1135.1C746.324 1135.1 754.754 1129.8 759.659 1124.19L763.569 1128.27L763.585 1128.24Z" fill="black"/>
<path d="M918.299 1099.14L920.96 1103.55C902.288 1130.71 874.784 1148.24 844.268 1148.24C789.341 1147.44 751.452 1106.7 750.923 1051.12C750.394 996.078 783.748 952.798 842.072 951.388C872.813 950.651 915.318 963.149 915.751 997.712C916.52 1059.45 813.719 1050.53 813.944 1085.79C814.088 1110.29 847.345 1125.95 867.396 1125.18C889.818 1125.18 909.212 1110.16 918.267 1099.11H918.283L918.299 1099.14ZM809.937 1080.71C819.169 1041.18 879.593 1030.24 879.593 986.608C879.593 968.822 865.264 957.461 849.044 957.445C815.434 957.365 800.753 998.513 800.753 1026.79C800.753 1041.18 801.971 1065.91 809.937 1080.73V1080.71Z" fill="black"/>
<path d="M1092.71 964.546C1080.21 956.214 1060.85 929.583 1038.59 953.698C1067.31 963.825 1090.55 988.613 1090.55 1020.76C1090.55 1064.29 1050.85 1093.17 1009.96 1093.17C998.357 1093.17 971.223 1084.63 961.045 1079.5C954.41 1084.37 950.884 1089.02 950.579 1094.67C950.579 1127.09 1102.65 1099.46 1102.65 1172.63C1102.65 1214.96 1055.5 1240.28 1013.71 1240.28C979.349 1240.28 922.419 1226.42 921.826 1179.18C921.329 1139.65 976.496 1151.28 962.183 1184.12C945.082 1223.34 986.673 1236.5 1013.73 1236.5C1054.57 1236.5 1074.58 1215.15 1074.58 1195.43C1074.58 1144.81 929.038 1179.74 929.038 1114.64C929.038 1095.99 943.831 1085.19 958.641 1076.92C940.93 1063.33 929.711 1045.46 929.423 1020.72C928.926 977.349 969.396 948.683 1009.98 948.683C1018.14 948.683 1026.33 949.932 1034.18 952.24C1052.5 930.528 1082.5 920.722 1102.15 926.362C1140.47 937.322 1118.16 981.483 1092.71 964.514H1092.73L1092.71 964.546ZM1036.09 1020.76C1036.09 981.787 1028.14 961.293 1012.25 959.274H1009.98C993.822 959.018 985.119 977.14 983.868 1013.59V1020.76C983.868 1059.47 991.674 1079.96 1007.32 1082.24C1008.09 1082.49 1008.95 1082.62 1009.98 1082.62C1026.37 1082.37 1035.08 1063.91 1036.09 1027.17V1020.76Z" fill="black"/>
<path d="M1292.27 1123.58L1295.54 1126.73C1286.76 1139.15 1269.62 1147.61 1254.22 1147.48C1220.07 1147.16 1220.9 1132.52 1218.82 1132.52C1215.1 1132.52 1199.57 1148.62 1161.53 1148.62C1108.03 1148.62 1088.62 1081.36 1134.67 1055.83C1157.25 1043.86 1215.61 1031.6 1215.61 1001.14C1215.61 974.479 1206.96 955.652 1184.1 955.54C1164.85 955.427 1143.28 974.463 1155.86 1003.79C1169.8 1036.31 1114.27 1043.41 1117.89 1003.79C1122.68 969.336 1152.33 951.357 1184.23 951.357C1230.34 951.357 1270.49 968.038 1270.49 1017.37V1106.91C1270.49 1124.75 1275.23 1130.21 1280.59 1130.21C1284.22 1130.21 1289.18 1127.84 1292.25 1123.59L1292.22 1123.55L1292.27 1123.58ZM1216.41 1014.25C1196.49 1049.04 1157.8 1054.23 1157.8 1089.02C1157.8 1109.96 1166.6 1135.37 1189.45 1135.37C1205.02 1135.37 1216.41 1116.14 1216.41 1103.74V1014.23V1014.25Z" fill="black"/>
<path d="M1404 1128.24C1390.2 1142.93 1370.95 1149.74 1351.05 1149.74C1318.43 1149.74 1302.99 1124.27 1302.99 1094.67V993.788C1303.01 974.111 1298.65 961.036 1284.85 961.036V954.947C1315.43 954.947 1342.73 935.415 1349.63 912.677H1355.24V954.947H1373.77V961.036H1355.24V1084.13C1355.24 1108.02 1358.58 1135.1 1378.71 1135.1C1386.72 1135.1 1395.12 1129.8 1400.04 1124.19L1403.95 1128.27H1404V1128.24Z" fill="black"/>
<path d="M219.104 1068.7L286.272 977.453C291.645 970.138 292.069 958.675 281.197 958.675V951.7H326.195V958.675C307.656 958.675 296.784 972.541 291.39 979.813L255.757 1027.9L321.756 1119.21C327.787 1127.57 338.978 1139.97 353.886 1139.97V1146.94H259.303V1139.97C270.834 1139.97 267.309 1129.82 258.624 1118.83L219.126 1068.87" fill="black"/>
<path d="M219.083 1148.6H97.0007C97.5953 1147.66 98.02 1146.88 98.5509 1146.18C102.118 1141.26 105.665 1136.35 109.317 1131.5C109.806 1130.84 110.74 1130.14 111.483 1130.12C127.028 1129.95 141.34 1125.97 154.358 1116.23C154.358 1119.49 154.421 1122.36 154.294 1125.21C154.273 1125.78 153.593 1126.38 153.105 1126.85C151.087 1128.78 149.027 1130.67 146.67 1132.91H203.433V1045.5C203.645 1045.38 203.836 1045.27 204.048 1045.14C208.083 1048.2 212.097 1051.35 216.195 1054.33C218.297 1055.86 219.062 1057.54 219.062 1060.35C218.934 1088.76 219.062 1117.17 219.104 1145.58C219.104 1146.52 219.104 1147.43 219.104 1148.6H219.083Z" fill="black"/>
<path d="M108.872 1118.68C111.123 1115.51 113.076 1112.77 115.073 1110.05C115.327 1109.7 115.816 1109.43 116.241 1109.34C125.584 1107.37 132.486 1101.82 137.582 1094.05C148.964 1076.72 149.984 1058.65 140.81 1040.04C140.215 1038.85 139.43 1037.74 138.601 1036.68C136.138 1033.53 133.526 1032.64 130.617 1033.81C127.474 1035.08 125.393 1038.7 125.775 1042.23C126.37 1047.61 130.702 1050.56 136.457 1049.14C137.242 1052.12 138.007 1055.12 138.835 1058.28C133.76 1059.71 129.258 1059.69 125.202 1056.69C119.553 1052.52 116.453 1046.8 116.878 1039.83C117.366 1031.87 121.762 1026.19 128.918 1022.73C132.103 1021.18 135.161 1021.56 138.092 1023.47C143.337 1026.9 147.074 1031.64 149.814 1037.15C157.862 1053.46 159.263 1070.3 152.447 1087.27C147.096 1100.6 138.41 1111.15 124.48 1116.42C119.638 1118.25 114.584 1118.87 108.872 1118.68Z" fill="black" fill-opacity="0.8"/>
<path d="M125.584 998.634C125.584 1001.63 125.669 1004.31 125.52 1006.97C125.478 1007.63 124.819 1008.48 124.204 1008.88C103.223 1022.17 100.293 1052.14 118.3 1069.49C122.866 1073.89 128.387 1076.36 134.927 1077.72C133.908 1080.38 133.08 1082.89 131.954 1085.27C131.721 1085.74 130.319 1085.99 129.576 1085.82C120.211 1083.85 112.991 1078.64 107.13 1071.15C92.7539 1052.78 93.7945 1025.58 109.636 1008.8C113.416 1004.8 117.727 1001.53 122.887 999.506C123.673 999.208 124.48 998.995 125.584 998.634Z" fill="black" fill-opacity="0.8"/>
<path d="M134.693 873.23C129.83 875.782 125.244 878.206 120.444 880.737C113.076 870.933 105.622 861.045 97.8923 850.773H149.516C148.39 856.132 146.288 860.896 143.336 865.298C142.975 865.851 141.892 866.17 141.128 866.191C137.348 866.276 133.589 866.234 129.236 866.234C131.211 868.764 132.909 870.955 134.693 873.251V873.23Z" fill="black"/>
<path d="M117.238 992.019C118.703 987.107 120.104 982.471 121.485 977.814C121.994 976.07 122.653 974.348 122.886 972.582C123.183 970.371 124.266 969.669 126.369 969.967C127.282 970.094 128.237 969.988 129.129 969.988C132.485 978.494 137.05 982.45 143.272 982.301C149.94 982.131 154.251 978.303 157.011 970.094H185.148C182.897 974.092 179.903 977.048 176.718 979.855C170.432 985.384 162.809 987.915 154.739 988.829C143.102 990.148 131.402 990.999 119.722 992.019C118.958 992.083 118.193 992.019 117.259 992.019H117.238Z" fill="black" fill-opacity="0.8"/>
<path d="M174.424 866.212H165.314C163.191 860.938 161.174 855.941 159.093 850.773H191.859V885.373C186.083 884.437 180.413 883.501 174.424 882.544V866.234V866.212Z" fill="black"/>
<path d="M133.717 1004.69C134.8 1002.65 135.607 1000.67 136.86 999.037C137.306 998.442 138.962 998.25 139.811 998.569C144.292 1000.21 149.07 1001.46 153.041 1003.99C165.294 1011.8 172.471 1023.51 176.506 1037.23C179.139 1046.18 180.137 1055.31 178.056 1064.56C176.4 1071.85 172.79 1077.64 165.273 1080.31C166.462 1076.91 167.948 1073.7 168.713 1070.3C173.448 1049.14 168.628 1030.49 153.487 1014.8C148.56 1009.69 142.317 1006.69 135.416 1005.12C134.97 1005.01 134.545 1004.91 133.738 1004.69H133.717Z" fill="black" fill-opacity="0.8"/>
<path d="M187.102 1058.48C185.106 1031.23 175.189 1009.31 150.174 995.764C158.328 995.806 165.506 997.529 171.6 1002.55C183.216 1012.12 189.672 1024.54 191.838 1039.34C192.814 1045.95 191.838 1052.05 187.548 1057.39C187.315 1057.69 187.251 1058.09 187.102 1058.46V1058.48Z" fill="black" fill-opacity="0.8"/>
<path d="M207.445 1019.6C205.343 1023.96 202.773 1030.55 200.055 1023.32C197.082 1016.16 193.897 1009.05 188.503 1003.4C184.617 999.335 180.179 995.805 175.974 992.041C177.758 990.935 179.967 989.51 182.281 988.255C182.748 988 183.725 988.383 184.299 988.744C195.192 995.996 198.399 1004.97 203.941 1014.18C205.407 1016.3 205.959 1017.47 207.466 1019.6H207.445Z" fill="black" fill-opacity="0.8"/>
<path d="M211.034 1009.08C205.725 997.953 199.121 988.49 188.716 981.77C190.117 979.686 191.54 977.602 193.048 975.39C199.334 978.601 204.175 983.195 208.359 988.66C210.355 991.276 211.416 993.955 211.14 997.358C210.843 1001.1 211.077 1004.89 211.077 1009.08H211.034Z" fill="black" fill-opacity="0.8"/>
<path d="M148.624 970.116C148.496 973.199 146.415 975.198 143.166 975.475C140.618 975.709 138.24 973.476 137.56 970.116H148.645H148.624Z" fill="black" fill-opacity="0.8"/>
<path d="M208.529 975.411C206.13 973.625 203.942 972.009 201.5 970.201H208.529V975.411Z" fill="black" fill-opacity="0.8"/>
<path d="M151.193 1118.49C169.498 1108.15 195.15 1071.66 203.453 1045.48C211.331 1067.05 210.503 1138.86 210.503 1138.86H134.905L151.172 1118.49H151.193Z" fill="black"/>
<path d="M202.753 1047.57C210.482 1030.11 214.262 1018.41 219.38 996.891C219.38 1021.2 219.38 1061.67 219.38 1061.67L202.753 1047.57Z" fill="black"/>
<path d="M132.676 874.292C134.098 873.548 137.263 871.825 140.066 869.018C143.357 865.722 143.591 865.063 144.568 863.298C145.544 861.533 125.923 863.298 125.923 863.298L132.654 874.271L132.676 874.292Z" fill="black"/>
<path d="M165.145 865.764C167.694 871.974 172.387 882.245 172.387 882.245L175.487 882.692V864.701L165.145 865.764Z" fill="black"/>
<path d="M198.759 839.673C205.831 841.396 212.095 844.82 217.34 849.838C230.485 862.428 235.751 878.058 233.67 895.985C232.311 907.787 226.344 917.272 216.427 923.822C210.566 927.692 203.877 929.33 197.061 926.608C189.671 923.652 185.763 917.059 187.165 908.532C187.292 907.787 188.227 906.66 188.885 906.575C203.368 904.789 212.881 893.369 215.472 881.482C218.445 867.787 213.773 856.367 204.748 846.372C202.773 844.182 200.352 842.374 198.122 840.396C198.335 840.162 198.547 839.929 198.781 839.695L198.759 839.673Z" fill="black" fill-opacity="0.8"/>
<path d="M116.769 934.923C103.264 921.206 103.476 900.855 121.93 890.094C126.538 887.415 131.528 885.373 136.306 882.97C144.609 878.802 150.576 872.486 153.634 863.576C153.74 863.278 153.91 863.023 154.611 862.619C155.121 864.81 155.779 866.979 156.14 869.19C156.989 874.592 156.501 879.908 154.335 884.948C153.868 886.011 152.827 887.16 151.787 887.606C132.186 896.134 120.571 910.892 117.067 932.009C116.939 932.839 116.897 933.689 116.791 934.901L116.769 934.923Z" fill="black" fill-opacity="0.8"/>
<path d="M207.849 937.815C203.028 941.536 197.571 942.706 191.795 942.365C185.424 941.983 179.797 939.835 174.828 935.582C169.837 931.329 166.843 926.055 165.463 919.866C163.764 912.211 165.272 905.129 170.432 899.068C174.934 893.773 181.602 891.944 188.185 894.135C188.822 894.347 189.438 894.666 190.521 895.134C185.658 896.963 182.281 899.898 180.137 904.087C177.418 909.404 177.1 914.954 178.926 920.611C182.536 931.711 193.706 939.027 205.3 937.985C206.15 937.9 206.999 937.9 207.827 937.836L207.849 937.815Z" fill="black" fill-opacity="0.8"/>
<path d="M124.67 959.826V951.405H208.698C208.698 953.744 208.805 956.168 208.613 958.571C208.571 959.039 207.361 959.762 206.66 959.783C202.561 959.869 198.463 959.783 194.364 959.783C172.768 959.783 151.172 959.826 129.575 959.847C128.004 959.847 126.432 959.847 124.67 959.847V959.826Z" fill="black" fill-opacity="0.8"/>
<path d="M159.496 915.721C159.496 894.944 173.618 890.457 173.618 890.457C173.618 890.457 164.019 892.988 155.95 896.135C155.652 896.241 155.376 896.348 155.1 896.475C150.726 898.219 146.925 900.154 145.544 901.919C145.544 901.919 145.523 901.962 145.502 901.983C132.697 911.744 126.093 927.906 126.326 940.389H175.996C175.996 940.389 159.517 936.497 159.517 915.721H159.496Z" fill="black" fill-opacity="0.8"/>
<path d="M97 1148.6C97 1148.6 105.813 1132.46 108.849 1126.97C127.6 1128.4 146.967 1114.24 165.102 1094.84C175.932 1083.27 194.131 1069.09 215.515 1012.05C216.534 1051.2 211.756 1135.84 211.756 1135.84H108.871" fill="black"/>
</svg>
