<svg width="1500" height="1500" viewBox="0 0 1500 1500" fill="none" xmlns="http://www.w3.org/2000/svg">
<circle cx="939.455" cy="235.455" r="4.05459" stroke="#3D3D3D" stroke-width="0.8"/>
<path d="M937.899 237.81V233.273H939.549C939.854 233.273 940.122 233.329 940.353 233.443C940.585 233.553 940.765 233.715 940.895 233.93C941.029 234.141 941.096 234.395 941.096 234.692C941.096 235.004 941.017 235.272 940.859 235.496C940.704 235.719 940.495 235.881 940.231 235.983L941.279 237.81H940.463L939.348 235.831L939.817 236.105H938.617V237.81H937.899ZM938.617 235.465H939.561C939.728 235.465 939.872 235.433 939.994 235.368C940.116 235.303 940.209 235.213 940.274 235.1C940.343 234.982 940.378 234.844 940.378 234.686C940.378 234.527 940.343 234.391 940.274 234.277C940.209 234.16 940.116 234.07 939.994 234.009C939.872 233.945 939.728 233.912 939.561 233.912H938.617V235.465Z" fill="#3D3D3D"/>
<path d="M536.709 833.904L539.978 837.061C531.195 849.479 514.062 857.94 498.659 857.812C464.52 857.491 465.338 842.846 463.238 842.846C459.52 842.846 443.989 858.949 405.955 858.949C352.455 858.949 333.046 791.683 379.109 766.157C401.692 754.188 460.049 741.93 460.049 711.469C460.049 684.806 451.41 665.978 428.538 665.866C409.289 665.754 387.716 684.79 400.298 714.113C414.274 746.641 358.706 753.739 362.328 714.113C367.121 679.662 396.772 661.684 428.667 661.684C474.778 661.684 514.927 678.365 514.927 727.701V817.24C514.927 835.074 519.671 840.538 525.025 840.538C528.663 840.538 533.615 838.167 536.693 833.92V833.872L536.709 833.904ZM460.85 724.576C440.928 759.363 402.237 764.555 402.237 799.342C402.237 820.285 411.036 845.698 433.924 845.698C449.486 845.698 460.882 826.47 460.882 814.067V724.56H460.866L460.85 724.576Z" fill="black"/>
<path d="M648.437 838.568C634.637 853.261 615.388 860.071 595.481 860.071C562.865 860.071 547.431 834.594 547.431 804.999V704.115C547.447 684.438 543.087 671.363 529.319 671.363V665.274C559.9 665.274 587.195 645.741 594.103 623.004H599.713V665.274H618.224V671.363H599.713V794.455C599.713 818.346 603.046 845.426 623.177 845.426C631.191 845.426 639.621 840.122 644.526 834.514L648.437 838.6V838.568Z" fill="black"/>
<path d="M762.585 838.568C748.786 853.261 729.536 860.071 709.614 860.071C676.998 860.071 661.563 834.594 661.563 804.999V704.115C661.579 684.438 657.22 671.363 643.452 671.363V665.274C674.033 665.274 701.328 645.741 708.236 623.004H713.845V665.274H732.357V671.363H713.845V794.455C713.845 818.346 717.179 845.426 737.31 845.426C745.324 845.426 753.754 840.122 758.659 834.514L762.569 838.6L762.585 838.568Z" fill="black"/>
<path d="M917.299 809.467L919.96 813.874C901.288 841.033 873.784 858.563 843.268 858.563C788.341 857.762 750.452 817.03 749.923 761.445C749.394 706.404 782.748 663.125 841.072 661.715C871.813 660.978 914.318 673.476 914.751 708.039C915.52 769.777 812.719 760.852 812.944 796.12C813.088 820.62 846.345 836.274 866.396 835.505C888.818 835.505 908.212 820.491 917.267 809.435H917.283L917.299 809.467ZM808.937 791.04C818.169 751.51 878.593 740.566 878.593 696.934C878.593 679.148 864.264 667.788 848.044 667.772C814.434 667.691 799.753 708.84 799.753 737.121C799.753 751.51 800.971 776.235 808.937 791.056V791.04Z" fill="black"/>
<path d="M1091.71 674.872C1079.21 666.54 1059.85 639.909 1037.59 664.025C1066.31 674.151 1089.55 698.94 1089.55 731.083C1089.55 774.619 1049.85 803.493 1008.96 803.493C997.357 803.493 970.223 794.952 960.045 789.825C953.41 794.696 949.884 799.343 949.579 804.999C949.579 837.415 1101.65 809.79 1101.65 882.953C1101.65 925.287 1054.5 950.604 1012.71 950.604C978.349 950.604 921.419 936.744 920.826 889.507C920.329 849.977 975.496 861.61 961.183 894.442C944.082 933.668 985.673 946.823 1012.73 946.823C1053.57 946.823 1073.58 925.48 1073.58 905.755C1073.58 855.137 928.038 890.068 928.038 824.964C928.038 806.313 942.831 795.513 957.641 787.245C939.93 773.657 928.711 755.791 928.423 731.051C927.926 687.675 968.396 659.009 1008.98 659.009C1017.14 659.009 1025.33 660.259 1033.18 662.566C1051.5 640.855 1081.5 631.048 1101.15 636.688C1139.47 647.649 1117.16 691.809 1091.71 674.84H1091.73L1091.71 674.872ZM1035.09 731.083C1035.09 692.114 1027.14 671.62 1011.25 669.601H1008.98C992.822 669.344 984.119 687.467 982.868 723.92V731.083C982.868 769.796 990.674 790.29 1006.32 792.565C1007.09 792.821 1007.95 792.949 1008.98 792.949C1025.37 792.693 1034.08 774.234 1035.09 737.492V731.083Z" fill="black"/>
<path d="M1291.27 833.904L1294.54 837.061C1285.76 849.479 1268.62 857.94 1253.22 857.812C1219.07 857.491 1219.9 842.846 1217.82 842.846C1214.1 842.846 1198.57 858.949 1160.53 858.949C1107.03 858.949 1087.62 791.683 1133.67 766.157C1156.25 754.188 1214.61 741.93 1214.61 711.469C1214.61 684.806 1205.96 665.978 1183.1 665.866C1163.85 665.754 1142.28 684.79 1154.86 714.113C1168.8 746.641 1113.27 753.739 1116.89 714.113C1121.68 679.662 1151.33 661.684 1183.23 661.684C1229.34 661.684 1269.49 678.365 1269.49 727.701V817.24C1269.49 835.074 1274.23 840.538 1279.59 840.538C1283.22 840.538 1288.18 838.167 1291.25 833.92L1291.22 833.872L1291.27 833.904ZM1215.41 724.576C1195.49 759.363 1156.8 764.555 1156.8 799.342C1156.8 820.285 1165.6 845.698 1188.45 845.698C1204.02 845.698 1215.41 826.47 1215.41 814.067V724.56V724.576Z" fill="black"/>
<path d="M1403 838.568C1389.2 853.261 1369.95 860.071 1350.05 860.071C1317.43 860.071 1301.99 834.594 1301.99 804.999V704.115C1302.01 684.438 1297.65 671.363 1283.85 671.363V665.274C1314.43 665.274 1341.73 645.741 1348.63 623.004H1354.24V665.274H1372.77V671.363H1354.24V794.455C1354.24 818.346 1357.58 845.426 1377.71 845.426C1385.72 845.426 1394.12 840.122 1399.04 834.514L1402.95 838.6H1403V838.568Z" fill="black"/>
<path d="M218.104 779.031L285.272 687.78C290.644 680.464 291.069 669.002 280.196 669.002V662.027H325.194V669.002C306.656 669.002 295.783 682.867 290.389 690.14L254.756 738.222L320.756 829.537C326.787 837.894 337.978 850.292 352.885 850.292V857.268H258.303V850.292C269.833 850.292 266.308 840.149 257.623 829.154L218.125 779.201" fill="black"/>
<path d="M218.083 858.927H96.0005C96.5951 857.991 97.0198 857.204 97.5507 856.502C101.118 851.59 104.665 846.677 108.317 841.829C108.805 841.17 109.74 840.468 110.483 840.447C126.027 840.276 140.34 836.3 153.357 826.56C153.357 829.814 153.421 832.685 153.294 835.534C153.272 836.108 152.593 836.704 152.104 837.172C150.087 839.107 148.027 841 145.67 843.232H202.432V755.83C202.645 755.703 202.836 755.596 203.048 755.469C207.083 758.531 211.096 761.678 215.195 764.656C217.297 766.187 218.062 767.867 218.062 770.674C217.934 799.085 218.062 827.496 218.104 855.907C218.104 856.842 218.104 857.757 218.104 858.927H218.083Z" fill="black"/>
<path d="M107.872 829.006C110.123 825.837 112.076 823.094 114.072 820.372C114.327 820.031 114.816 819.755 115.24 819.67C124.584 817.692 131.485 812.142 136.582 804.38C147.964 787.048 148.983 768.972 139.81 750.365C139.215 749.174 138.429 748.068 137.601 747.005C135.138 743.858 132.526 742.964 129.617 744.134C126.474 745.41 124.393 749.025 124.775 752.555C125.37 757.936 129.702 760.891 135.456 759.467C136.242 762.444 137.007 765.442 137.835 768.611C132.759 770.036 128.258 770.014 124.202 767.016C118.553 762.848 115.453 757.127 115.877 750.152C116.366 742.199 120.761 736.521 127.918 733.055C131.103 731.502 134.161 731.885 137.091 733.799C142.337 737.223 146.074 741.965 148.813 747.473C156.862 763.784 158.263 780.626 151.447 797.596C146.095 810.93 137.41 821.478 123.48 826.751C118.638 828.58 113.584 829.197 107.872 829.006Z" fill="black" fill-opacity="0.8"/>
<path d="M124.584 708.96C124.584 711.959 124.669 714.638 124.52 717.297C124.477 717.956 123.819 718.806 123.203 719.211C102.223 732.502 99.2923 762.465 117.3 779.818C121.865 784.22 127.387 786.687 133.927 788.048C132.908 790.706 132.08 793.215 130.954 795.597C130.721 796.065 129.319 796.32 128.576 796.15C119.211 794.172 111.991 788.962 106.13 781.477C91.7537 763.103 92.7942 735.904 108.636 719.125C112.416 715.128 116.727 711.853 121.887 709.832C122.672 709.535 123.479 709.322 124.584 708.96Z" fill="black" fill-opacity="0.8"/>
<path d="M133.693 583.557C128.83 586.109 124.243 588.533 119.444 591.064C112.075 581.26 104.622 571.371 96.8921 561.1H148.515C147.39 566.459 145.288 571.223 142.336 575.625C141.975 576.177 140.892 576.496 140.127 576.518C136.347 576.603 132.589 576.56 128.236 576.56C130.21 579.091 131.909 581.281 133.693 583.578V583.557Z" fill="black"/>
<path d="M116.237 702.346C117.703 697.434 119.104 692.798 120.484 688.14C120.994 686.397 121.652 684.674 121.886 682.909C122.183 680.697 123.266 679.996 125.369 680.293C126.282 680.421 127.237 680.315 128.129 680.315C131.484 688.821 136.05 692.776 142.272 692.628C148.94 692.457 153.251 688.63 156.011 680.421H184.148C181.897 684.419 178.903 687.375 175.718 690.182C169.432 695.711 161.808 698.242 153.739 699.156C142.102 700.475 130.401 701.325 118.722 702.346C117.957 702.41 117.193 702.346 116.259 702.346H116.237Z" fill="black" fill-opacity="0.8"/>
<path d="M173.424 576.539H164.314C162.191 571.265 160.173 566.268 158.092 561.1H190.858V595.699C185.082 594.764 179.413 593.828 173.424 592.871V576.56V576.539Z" fill="black"/>
<path d="M132.716 715.021C133.799 712.979 134.606 711.001 135.859 709.364C136.305 708.769 137.961 708.577 138.811 708.896C143.292 710.534 148.069 711.788 152.041 714.319C164.293 722.123 171.471 733.841 175.506 747.557C178.139 756.51 179.137 765.633 177.056 774.884C175.399 782.178 171.789 787.962 164.272 790.642C165.461 787.239 166.948 784.028 167.712 780.625C172.448 759.466 167.627 740.816 152.486 725.122C147.56 720.018 141.317 717.02 134.415 715.446C133.969 715.34 133.544 715.233 132.738 715.021H132.716Z" fill="black" fill-opacity="0.8"/>
<path d="M186.102 768.803C184.106 741.562 174.189 719.637 149.173 706.09C157.328 706.133 164.505 707.855 170.6 712.874C182.216 722.444 188.671 734.863 190.837 749.664C191.814 756.277 190.837 762.381 186.548 767.718C186.314 768.016 186.25 768.42 186.102 768.782V768.803Z" fill="black" fill-opacity="0.8"/>
<path d="M206.445 729.928C204.343 734.287 201.773 740.879 199.055 733.649C196.082 726.483 192.897 719.38 187.503 713.723C183.617 709.661 179.179 706.131 174.974 702.367C176.758 701.261 178.966 699.837 181.281 698.582C181.748 698.327 182.725 698.709 183.298 699.071C194.192 706.323 197.399 715.297 202.941 724.505C204.406 726.631 204.959 727.801 206.466 729.928H206.445Z" fill="black" fill-opacity="0.8"/>
<path d="M210.034 719.402C204.725 708.28 198.121 698.816 187.715 692.097C189.117 690.012 190.54 687.928 192.047 685.717C198.333 688.928 203.175 693.521 207.358 698.987C209.354 701.602 210.416 704.282 210.14 707.684C209.843 711.427 210.076 715.212 210.076 719.402H210.034Z" fill="black" fill-opacity="0.8"/>
<path d="M147.623 680.442C147.496 683.526 145.415 685.525 142.166 685.801C139.617 686.035 137.239 683.802 136.56 680.442H147.644H147.623Z" fill="black" fill-opacity="0.8"/>
<path d="M207.529 685.738C205.129 683.952 202.942 682.335 200.5 680.528H207.529V685.738Z" fill="black" fill-opacity="0.8"/>
<path d="M150.193 828.814C168.498 818.479 194.15 781.987 202.453 755.809C210.331 777.373 209.503 849.187 209.503 849.187H133.905L150.172 828.814H150.193Z" fill="black"/>
<path d="M201.752 757.894C209.482 740.435 213.262 728.739 218.38 707.218C218.38 731.525 218.38 771.993 218.38 771.993L201.752 757.894Z" fill="black"/>
<path d="M131.675 584.619C133.098 583.874 136.262 582.152 139.065 579.345C142.357 576.049 142.59 575.389 143.567 573.624C144.544 571.859 124.922 573.624 124.922 573.624L131.654 584.597L131.675 584.619Z" fill="black"/>
<path d="M164.145 576.091C166.693 582.301 171.386 592.572 171.386 592.572L174.487 593.019V575.028L164.145 576.091Z" fill="black"/>
<path d="M197.759 550C204.831 551.723 211.095 555.146 216.34 560.165C229.485 572.754 234.751 588.385 232.67 606.312C231.311 618.114 225.344 627.599 215.427 634.148C209.566 638.019 202.877 639.656 196.06 636.934C188.67 633.978 184.763 627.386 186.165 618.858C186.292 618.114 187.226 616.987 187.885 616.902C202.367 615.116 211.881 603.696 214.471 591.808C217.444 578.113 212.773 566.694 203.748 556.699C201.773 554.508 199.352 552.701 197.122 550.723C197.334 550.489 197.547 550.255 197.78 550.021L197.759 550Z" fill="black" fill-opacity="0.8"/>
<path d="M115.769 645.249C102.264 631.533 102.476 611.182 120.93 600.421C125.538 597.742 130.528 595.7 135.306 593.297C143.609 589.129 149.576 582.813 152.634 573.903C152.74 573.605 152.91 573.35 153.611 572.946C154.121 575.136 154.779 577.305 155.14 579.517C155.989 584.918 155.501 590.235 153.335 595.275C152.868 596.338 151.827 597.486 150.787 597.933C131.186 606.461 119.571 621.219 116.067 642.336C115.939 643.165 115.897 644.016 115.791 645.228L115.769 645.249Z" fill="black" fill-opacity="0.8"/>
<path d="M206.849 648.141C202.028 651.863 196.571 653.032 190.795 652.692C184.424 652.309 178.797 650.162 173.828 645.908C168.837 641.655 165.843 636.381 164.463 630.193C162.764 622.537 164.272 615.456 169.432 609.395C173.934 604.1 180.602 602.271 187.185 604.461C187.822 604.674 188.438 604.993 189.521 605.461C184.658 607.29 181.281 610.224 179.137 614.414C176.418 619.73 176.1 625.281 177.926 630.937C181.536 642.038 192.706 649.353 204.3 648.311C205.15 648.226 205.999 648.226 206.827 648.163L206.849 648.141Z" fill="black" fill-opacity="0.8"/>
<path d="M123.67 670.153V661.731H207.698C207.698 664.071 207.805 666.495 207.613 668.898C207.571 669.366 206.361 670.089 205.66 670.11C201.561 670.195 197.463 670.11 193.364 670.11C171.768 670.11 150.172 670.153 128.575 670.174C127.004 670.174 125.432 670.174 123.67 670.174V670.153Z" fill="black" fill-opacity="0.8"/>
<path d="M158.496 626.047C158.496 605.271 172.618 600.784 172.618 600.784C172.618 600.784 163.019 603.314 154.95 606.462C154.652 606.568 154.376 606.674 154.1 606.802C149.726 608.546 145.925 610.481 144.544 612.246C144.544 612.246 144.523 612.288 144.502 612.31C131.697 622.071 125.093 638.233 125.326 650.716H174.996C174.996 650.716 158.517 646.824 158.517 626.047H158.496Z" fill="black" fill-opacity="0.8"/>
<path d="M96 858.928C96 858.928 104.813 842.787 107.849 837.301C126.6 838.726 145.967 824.563 164.102 805.168C174.932 793.6 193.131 779.416 214.515 722.381C215.534 761.531 210.756 846.169 210.756 846.169H107.871" fill="black"/>
</svg>
